PathFileType	4	(X/Y/Z)	C:/Users/rsk02/Documents/GitHub/TechForParalysis/Code/Model/04122019 - Marker Volunteer01/Rosti Data/New Session 109.trc	
DataRate	CameraRate	NumFrames	NumMarkers	Units	OrigDataRate	OrigDataStartFrame	OrigNumFrames	
100.00	100.00	27	14	mm	100.00	999	1141	
Frame#	Time	C7			PX			T8			IJ			SC			AC			AI			TS			AA			GH			LE			ME			US			RS			
		X1	Y1	Z1	X2	Y2	Z2	X3	Y3	Z3	X4	Y4	Z4	X5	Y5	Z5	X6	Y6	Z6	X7	Y7	Z7	X8	Y8	Z8	X9	Y9	Z9	X10	Y10	Z10	X11	Y11	Z11	X12	Y12	Z12	X13	Y13	Z13	X14	Y14	Z14	

999	9.980	673.32117	7.29183	1539.07776	452.43848	-19.72961	1283.41089	752.02893	-1.05918	1330.03088	512.81830	-18.47955	1429.23230	516.36694	6.81038	1437.38367	580.53363	152.42691	1479.15125	711.41907	85.08855	1462.70911	747.42822	80.62914	1345.71716	656.87592	200.55586	1442.43066	615.68298	212.14207	1449.97974	621.28448	273.84686	1158.20667	666.12946	192.51289	1130.82263	602.70435	297.26025	880.79065	525.27576	285.31290	887.94818 
1000	9.990	673.35406	7.21374	1539.06970	452.41412	-19.60145	1283.44519	752.06677	-1.16531	1330.01367	512.82617	-18.47371	1429.26868	516.40723	6.86369	1437.40918	580.74615	152.46498	1479.21973	711.53668	84.95986	1462.72449	747.62830	80.53725	1345.71899	657.22253	200.39540	1442.54419	616.08374	212.09183	1450.08057	622.07318	273.65500	1158.19910	666.81604	192.13664	1130.98364	604.21326	297.16782	880.82318	526.73041	285.11050	887.71356 
1001	10.000	673.38556	7.12313	1539.06311	452.38388	-19.48980	1283.47156	752.11456	-1.27651	1330.00476	512.83740	-18.45670	1429.28845	516.44751	6.90845	1437.41699	580.97717	152.49989	1479.29041	711.65515	84.83091	1462.73511	747.93042	80.44301	1345.74927	657.58868	200.21140	1442.64124	616.51196	212.03331	1450.18262	622.82782	273.50980	1158.20007	667.45447	191.77737	1131.12903	605.52887	297.13995	880.88507	527.99561	285.02567	887.56873 
1002	10.010	673.42969	7.02185	1539.06079	452.35513	-19.39315	1283.49109	752.16986	-1.40149	1330.00317	512.85553	-18.42053	1429.27942	516.48956	6.94818	1437.41553	581.21619	152.53371	1479.35437	711.78625	84.68618	1462.73950	748.26404	80.32541	1345.78625	657.96002	200.02847	1442.71545	616.94922	211.98622	1450.29626	623.57184	273.40961	1158.22571	668.02527	191.45413	1131.24402	606.66754	297.13611	880.95813	529.09290	285.11984	887.49677 
1003	10.020	673.50000	6.90919	1539.06982	452.33481	-19.30873	1283.50684	752.22815	-1.54534	1330.00623	512.88654	-18.36219	1429.25427	516.53943	6.98630	1437.40796	581.45209	152.55981	1479.41370	711.94067	84.51402	1462.74097	748.56256	80.16441	1345.81274	658.31793	199.87350	1442.77783	617.39911	211.96263	1450.43372	624.30902	273.36185	1158.28687	668.50458	191.19014	1131.31921	607.64319	297.13593	881.02893	530.04175	285.38989	887.47687 
1004	10.030	673.59790	6.78590	1539.09521	452.32739	-19.23266	1283.52246	752.28754	-1.70512	1330.00977	512.93335	-18.28945	1429.23376	516.59888	7.02068	1437.39514	581.68530	152.57651	1479.47510	712.12689	84.31496	1462.75061	748.79364	79.95223	1345.82227	658.64734	199.76151	1442.84802	617.85626	211.95200	1450.58496	625.00616	273.36063	1158.37891	668.89111	190.99379	1131.36316	608.45270	297.15195	881.09149	530.83093	285.75311	887.49994 
1005	10.040	673.70789	6.65650	1539.13074	452.33472	-19.16050	1283.54004	752.34973	-1.87196	1330.01050	512.99280	-18.22599	1429.22778	516.66064	7.04286	1437.38464	581.92175	152.58908	1479.54138	712.33966	84.10081	1462.78308	748.97986	79.70478	1345.81958	658.94672	199.68019	1442.93555	618.28125	211.92732	1450.71655	625.61554	273.37973	1158.48743	669.20258	190.86594	1131.39526	609.09088	297.21124	881.15692	531.43677	286.12616	887.56921 
1006	10.050	673.81616	6.52040	1539.16589	452.35669	-19.08793	1283.55908	752.41626	-2.03750	1330.00732	513.05676	-18.19714	1429.23108	516.72211	7.05329	1437.38110	582.16943	152.60863	1479.61157	712.55988	83.88797	1462.84045	749.14697	79.44123	1345.81079	659.23541	199.60196	1443.03638	618.63678	211.89311	1450.81555	626.10809	273.39468	1158.60156	669.45764	190.80133	1131.43274	609.57068	297.33597	881.24457	531.87543	286.49881	887.69025 
1007	10.060	673.92389	6.37701	1539.19897	452.39297	-19.01155	1283.57581	752.48627	-2.19874	1330.00037	513.11914	-18.19970	1429.24158	516.78284	7.06132	1437.39099	582.43799	152.64169	1479.68591	712.77264	83.68526	1462.91064	749.30579	79.17383	1345.80054	659.54041	199.51137	1443.14587	618.92755	211.86485	1450.90601	626.48438	273.39117	1158.71704	669.66681	190.78758	1131.48450	609.91809	297.52893	881.36298	532.18707	286.89752	887.85883 
1008	10.070	674.02985	6.23637	1539.22266	452.44373	-18.92902	1283.58533	752.55823	-2.35744	1329.98914	513.17908	-18.21461	1429.25342	516.84851	7.07859	1437.41077	582.71484	152.66336	1479.75867	712.97797	83.49529	1462.97876	749.47711	78.91963	1345.79529	659.87115	199.40112	1443.26062	619.19409	211.84253	1451.01917	626.76416	273.36197	1158.83447	669.83130	190.80884	1131.54956	610.15582	297.77795	881.50525	532.40100	287.35626	888.06897 
1009	10.080	674.14001	6.10082	1539.23181	452.50946	-18.83924	1283.58411	752.63269	-2.51605	1329.97131	513.24304	-18.22341	1429.25549	516.92511	7.10472	1437.42126	582.96844	152.62590	1479.82324	713.18878	83.31524	1463.03198	749.67377	78.69329	1345.79663	660.21484	199.26672	1443.37061	619.47382	211.81348	1451.16357	626.97546	273.31058	1158.95337	669.94733	190.85045	1131.61877	610.29755	298.07361	881.66125	532.52789	287.89365	888.31738 
1010	10.090	674.26752	5.95811	1539.22949	452.59067	-18.74290	1283.57080	752.71307	-2.67548	1329.94373	513.32080	-18.21503	1429.23401	517.01715	7.13190	1437.41296	583.19861	152.53549	1479.88647	713.41357	83.13875	1463.06689	749.88641	78.49971	1345.79846	660.55170	199.11235	1443.46350	619.77594	211.76976	1451.32092	627.14874	273.26099	1159.07410	670.01575	190.90039	1131.68005	610.35242	298.41776	881.82990	532.57196	288.47879	888.59216 
1011	10.100	674.41754	5.79842	1539.22339	452.68723	-18.64244	1283.54614	752.80615	-2.83633	1329.90613	513.41937	-18.18848	1429.19568	517.13129	7.14980	1437.40625	583.43335	152.44453	1479.95801	713.64514	82.95974	1463.08875	750.08966	78.33311	1345.79163	660.87476	198.94322	1443.53296	620.09137	211.70558	1451.46045	627.31433	273.23410	1159.19971	670.04407	190.94872	1131.72351	610.32727	298.81537	882.01672	532.53864	289.06555	888.87476 
1012	10.110	674.57782	5.62618	1539.21655	452.79755	-18.54122	1283.51245	752.91949	-3.00120	1329.86426	513.53906	-18.14331	1429.17053	517.27258	7.15278	1437.42566	583.68268	152.37744	1480.03760	713.86981	82.77992	1463.10352	750.26440	78.17899	1345.77368	661.18542	198.76326	1443.58337	620.40009	211.60468	1451.56104	627.48950	273.21667	1159.32593	670.04388	190.98868	1131.74280	610.22791	299.25510	882.21838	532.43378	289.65060	889.15369 
1013	10.120	674.72168	5.45819	1539.19946	452.91833	-18.44290	1283.47424	753.05811	-3.17367	1329.82483	513.67651	-18.07862	1429.18188	517.42712	7.15808	1437.46069	583.93665	152.32060	1480.11780	714.08057	82.60212	1463.11536	750.41632	78.02055	1345.75391	661.48322	198.58273	1443.62231	620.67804	211.44472	1451.61731	627.66876	273.19614	1159.44238	670.02417	191.01625	1131.73499	610.06262	299.70352	882.41742	532.26221	290.26395	889.42926 
1014	10.130	674.82788	5.31235	1539.16113	453.04599	-18.35105	1283.43616	753.21796	-3.35444	1329.79089	513.82617	-18.00014	1429.22949	517.56897	7.19266	1437.48010	584.19275	152.25417	1480.18921	714.28180	82.42126	1463.13123	750.57074	77.84538	1345.74536	661.76910	198.41364	1443.65369	620.93176	211.24626	1451.64404	627.83722	273.18896	1159.53967	669.98010	191.02531	1131.69910	609.84760	300.12274	882.59521	532.02747	290.92453	889.70575 
1015	10.140	674.90369	5.18619	1539.10950	453.17761	-18.26844	1283.40173	753.38745	-3.53848	1329.76270	513.98157	-17.93023	1429.29297	517.69641	7.23568	1437.48096	584.46289	152.16519	1480.24182	714.49207	82.22797	1463.15674	750.75403	77.65224	1345.75366	662.05255	198.26651	1443.68079	621.20569	211.07495	1451.67432	627.99127	273.21716	1159.61621	669.88318	191.00333	1131.63403	609.60138	300.49222	882.74371	531.73401	291.62326	889.98425 
1016	10.150	674.98145	5.05528	1539.06653	453.31082	-18.19619	1283.37366	753.55780	-3.71872	1329.74060	514.14172	-17.89639	1429.33630	517.84827	7.24010	1437.48010	584.75903	152.05132	1480.26917	714.72705	82.02032	1463.18420	750.97382	77.44927	1345.77319	662.34528	198.15182	1443.70947	621.52136	210.96866	1451.72510	628.14050	273.27750	1159.67737	669.68530	190.93298	1131.53638	609.33167	300.83057	882.87384	531.39209	292.35034	890.25897 
1017	10.160	675.08844	4.90426	1539.04150	453.44373	-18.13343	1283.35315	753.72778	-3.89196	1329.72571	514.31281	-17.89829	1429.33667	518.04950	7.20136	1437.47839	585.08337	151.91867	1480.27405	714.98096	81.80392	1463.19653	751.21368	77.24688	1345.79053	662.65704	198.07512	1443.74292	621.86694	210.91849	1451.79248	628.28992	273.33096	1159.72852	669.34869	190.80164	1131.40393	609.03027	301.17572	883.00616	531.01917	293.10602	890.52875 
1018	10.170	675.23334	4.73635	1539.03357	453.57520	-18.07784	1283.34009	753.89789	-4.05982	1329.71790	514.50330	-17.91154	1429.30774	518.27368	7.17043	1437.47485	585.43915	151.77722	1480.27185	715.23785	81.57818	1463.18811	751.45099	77.05569	1345.79175	662.99860	198.01796	1443.77283	622.22278	210.89326	1451.86279	628.43488	273.33090	1159.77014	668.88806	190.61082	1131.24548	608.68774	301.54745	883.15430	530.63379	293.87399	890.80273 
1019	10.180	675.40631	4.55771	1539.04224	453.70435	-18.02677	1283.33374	754.06110	-4.22570	1329.71326	514.71075	-17.92135	1429.27747	518.49585	7.17689	1437.47144	585.82892	151.64290	1480.28381	715.49524	81.33706	1463.17273	751.67657	76.88312	1345.77246	663.38513	197.92802	1443.78381	622.56689	210.84370	1451.91992	628.56659	273.26297	1159.80029	668.39160	190.36737	1131.08606	608.30664	301.93781	883.32098	530.24390	294.61273	891.08337 
1020	10.190	675.58984	4.37036	1539.06274	453.83044	-17.97836	1283.33276	754.20337	-4.39246	1329.70435	514.92212	-17.92647	1429.26086	518.72675	7.16136	1437.46399	586.24707	151.53030	1480.32227	715.76099	81.08242	1463.16516	751.89587	76.72691	1345.73840	663.82275	197.77171	1443.76978	622.90363	210.72932	1451.95569	628.67633	273.14972	1159.81946	668.00043	190.06879	1130.96228	607.90283	302.32986	883.50244	529.84686	295.28500	891.35742 
1021	10.200	675.77008	4.17144	1539.08362	453.95294	-17.93236	1283.33655	754.31586	-4.56179	1329.68567	515.12836	-17.93355	1429.25415	518.97681	7.08102	1437.43335	586.67059	151.44406	1480.38123	716.03766	80.81940	1463.16821	752.12079	76.57590	1345.70593	664.29694	197.55513	1443.73730	623.29926	210.57057	1451.98718	628.75903	273.02728	1159.82971	667.83038	189.69994	1130.90271	607.49139	302.69806	883.68073	529.43701	295.89355	891.61121 
1022	10.210	675.94641	3.95301	1539.10132	454.07169	-17.88965	1283.34546	754.40588	-4.73462	1329.65796	515.33673	-17.95456	1429.24561	519.23022	6.97500	1437.37439	587.07239	151.37543	1480.44104	716.31610	80.55740	1463.17615	752.36859	76.41704	1345.69299	664.77527	197.30965	1443.69678	623.79626	210.40347	1452.02893	628.81897	272.92117	1159.83252	667.90222	189.24782	1130.90723	607.07629	303.01294	883.82642	529.01111	296.49500	891.85394 
1023	10.220	676.13696	3.70417	1539.13477	454.18671	-17.85110	1283.36084	754.49597	-4.91071	1329.62720	515.55133	-18.00016	1429.22607	519.44409	6.91355	1437.32214	587.44714	151.31169	1480.48694	716.59308	80.30678	1463.18530	752.65088	76.23798	1345.70886	665.23047	197.06610	1443.66016	624.35999	210.23918	1452.07507	628.87030	272.83517	1159.82813	668.10938	188.72713	1130.93860	606.65356	303.26779	883.92444	528.57019	297.14548	892.10199 
1024	10.230	676.34406	3.43349	1539.18811	454.29791	-17.81697	1283.38464	754.60925	-5.08799	1329.60010	515.75507	-18.06547	1429.20264	519.61328	6.91464	1437.29822	587.82385	151.23755	1480.51648	716.87671	80.06367	1463.19360	752.96033	76.02552	1345.74878	665.66748	196.82211	1443.63220	624.92493	210.08217	1452.11450	628.92542	272.76035	1159.81799	668.23700	188.19882	1130.92896	606.22314	303.49680	883.99640	528.12726	297.81699	892.35571 
1025	10.240	676.54877	3.16871	1539.23975	454.40512	-17.78739	1283.41870	754.75012	-5.26414	1329.57861	515.92987	-18.13293	1429.19458	519.77185	6.95629	1437.30225	588.23456	151.14661	1480.53210	717.17542	79.80872	1463.19214	753.27094	75.77022	1345.79456	666.12195	196.54512	1443.60425	625.45221	209.94168	1452.14575	628.98517	272.69373	1159.80933	668.03528	187.75343	1130.80432	605.79218	303.72827	884.07440	527.69989	298.43527	892.60938 
